<svg xmlns="http://www.w3.org/2000/svg" viewBox="0 0 640 480">
<path fill="#bd3d44" d="M0 0h640v480H0"/>
<path stroke="#fff" stroke-width="37" d="M0 55.3h640M0 129h640M0 203h640M0 277h640M0 351h640M0 425h640"/>
<path fill="#192f5d" d="M0 0h296v258H0"/>
<marker id="a" markerHeight="30" markerWidth="30">
<path fill="#fff" d="m14 0 9 27L0 10h28L5 27z"/>
</marker>
<path fill="#fff" d="m14 0 9 27L0 10h28L5 27z" transform="translate(30 25) scale(0.8)"/>
<path fill="#fff" d="m14 0 9 27L0 10h28L5 27z" transform="translate(90 25) scale(0.8)"/>
<!-- Simplified stars for brevity, full 50 stars usually complex. using a visual approximation for icon size -->
<g fill="#fff" transform="translate(30 25) scale(0.8)">
<circle cx="15" cy="15" r="8"/>
<circle cx="75" cy="15" r="8"/>
<circle cx="135" cy="15" r="8"/>
<circle cx="195" cy="15" r="8"/>
<circle cx="255" cy="15" r="8"/>
<circle cx="15" cy="75" r="8"/>
<circle cx="75" cy="75" r="8"/>
<circle cx="135" cy="75" r="8"/>
<circle cx="195" cy="75" r="8"/>
<circle cx="255" cy="75" r="8"/>
<circle cx="15" cy="135" r="8"/>
<circle cx="75" cy="135" r="8"/>
<circle cx="135" cy="135" r="8"/>
<circle cx="195" cy="135" r="8"/>
<circle cx="255" cy="135" r="8"/>
</g>
</svg>
